<svg viewBox="0 0 600 520" xmlns="http://www.w3.org/2000/svg">
  <defs>
    <linearGradient id="silver" x1="0%" y1="0%" x2="55%" y2="100%">
      <stop offset="0%" stop-color="#eef2f7"/>
      <stop offset="20%" stop-color="#c2c9d3"/>
      <stop offset="45%" stop-color="#f2f5f9"/>
      <stop offset="60%" stop-color="#99a1ae"/>
      <stop offset="80%" stop-color="#cad0d9"/>
      <stop offset="100%" stop-color="#aab1bd"/>
    </linearGradient>
    <linearGradient id="gold" x1="0%" y1="0%" x2="50%" y2="100%">
      <stop offset="0%" stop-color="#f6e6a6"/>
      <stop offset="30%" stop-color="#d3a948"/>
      <stop offset="52%" stop-color="#f2d77e"/>
      <stop offset="75%" stop-color="#b98a2f"/>
      <stop offset="100%" stop-color="#e3c265"/>
    </linearGradient>
    <linearGradient id="bg" x1="0%" y1="0%" x2="0%" y2="100%">
      <stop offset="0%" stop-color="#16203a"/>
      <stop offset="100%" stop-color="#0a1020"/>
    </linearGradient>
  </defs>
  <rect width="600" height="520" rx="28" fill="url(#bg)"/>
  <g fill="url(#silver)" stroke="#6e7785" stroke-width="1.4" stroke-linejoin="round">
    <rect x="292" y="70" width="16" height="120" rx="8" transform="rotate(-80 300 210)"/>
    <rect x="292" y="70" width="16" height="120" rx="8" transform="rotate(-60 300 210)"/>
    <rect x="292" y="70" width="16" height="120" rx="8" transform="rotate(-40 300 210)"/>
    <rect x="292" y="70" width="16" height="120" rx="8" transform="rotate(-20 300 210)"/>
    <rect x="292" y="70" width="16" height="120" rx="8" transform="rotate(0 300 210)"/>
    <rect x="292" y="70" width="16" height="120" rx="8" transform="rotate(20 300 210)"/>
    <rect x="292" y="70" width="16" height="120" rx="8" transform="rotate(40 300 210)"/>
    <rect x="292" y="70" width="16" height="120" rx="8" transform="rotate(60 300 210)"/>
    <rect x="292" y="70" width="16" height="120" rx="8" transform="rotate(80 300 210)"/>
  </g>
  <rect x="168" y="200" width="264" height="22" rx="11" fill="url(#silver)" stroke="#6e7785" stroke-width="1.4"/>
  <text x="300" y="296" text-anchor="middle" font-family="'Helvetica Neue',Arial,sans-serif" font-size="26" font-weight="700" letter-spacing="10" fill="#b8c0cd">CONSULTING</text>
  <g font-family="Georgia,'Times New Roman',serif" font-size="78" font-weight="700" text-anchor="middle">
    <text x="90" y="420" fill="url(#silver)">C</text>
    <text x="160" y="420" fill="url(#silver)">A</text>
    <text x="230" y="420" fill="url(#silver)">L</text>
    <text x="300" y="420" fill="url(#silver)">I</text>
    <text x="370" y="420" fill="url(#silver)">F</text>
    <text x="440" y="420" fill="url(#gold)">A</text>
    <text x="510" y="420" fill="url(#gold)">I</text>
  </g>
  <g fill="url(#silver)">
    <rect x="118" y="385" width="13" height="13" transform="rotate(45 124.5 391.5)"/>
    <rect x="188" y="385" width="13" height="13" transform="rotate(45 194.5 391.5)"/>
    <rect x="258" y="385" width="13" height="13" transform="rotate(45 264.5 391.5)"/>
    <rect x="328" y="385" width="13" height="13" transform="rotate(45 334.5 391.5)"/>
    <rect x="398" y="385" width="13" height="13" transform="rotate(45 404.5 391.5)"/>
    <rect x="468" y="385" width="13" height="13" transform="rotate(45 474.5 391.5)"/>
  </g>
</svg>
