<svg viewBox="0 0 600 520" xmlns="http://www.w3.org/2000/svg">
  <rect x="0" y="0" width="600" height="520" rx="28" fill="#ffffff"/>
  <!-- sol -->
  <g fill="#F6C61C" stroke="#D9711A" stroke-width="3" stroke-linejoin="round">
    <rect x="292" y="70" width="16" height="120" rx="8" transform="rotate(-80 300 210)"/>
    <rect x="292" y="70" width="16" height="120" rx="8" transform="rotate(-60 300 210)"/>
    <rect x="292" y="70" width="16" height="120" rx="8" transform="rotate(-40 300 210)"/>
    <rect x="292" y="70" width="16" height="120" rx="8" transform="rotate(-20 300 210)"/>
    <rect x="292" y="70" width="16" height="120" rx="8" transform="rotate(0 300 210)"/>
    <rect x="292" y="70" width="16" height="120" rx="8" transform="rotate(20 300 210)"/>
    <rect x="292" y="70" width="16" height="120" rx="8" transform="rotate(40 300 210)"/>
    <rect x="292" y="70" width="16" height="120" rx="8" transform="rotate(60 300 210)"/>
    <rect x="292" y="70" width="16" height="120" rx="8" transform="rotate(80 300 210)"/>
  </g>
  <rect x="168" y="200" width="264" height="22" rx="11" fill="#F6C61C" stroke="#D9711A" stroke-width="3"/>
  <!-- CONSULTING -->
  <text x="300" y="296" text-anchor="middle" font-family="'Helvetica Neue',Arial,sans-serif" font-size="26" font-weight="700" letter-spacing="10" fill="#1B2A8E">CONSULTING</text>
  <!-- CALIFAI -->
  <g font-family="Georgia,'Times New Roman',serif" font-size="78" font-weight="700" text-anchor="middle">
    <text x="90" y="420" fill="#1B2A8E">C</text>
    <text x="160" y="420" fill="#1B2A8E">A</text>
    <text x="230" y="420" fill="#1B2A8E">L</text>
    <text x="300" y="420" fill="#1B2A8E">I</text>
    <text x="370" y="420" fill="#1B2A8E">F</text>
    <text x="440" y="420" fill="#E07B1E">A</text>
    <text x="510" y="420" fill="#E07B1E">I</text>
  </g>
  <!-- rombos -->
  <g fill="#E07B1E">
    <rect x="118" y="385" width="14" height="14" transform="rotate(45 125 392)"/>
    <rect x="188" y="385" width="14" height="14" transform="rotate(45 195 392)"/>
    <rect x="258" y="385" width="14" height="14" transform="rotate(45 265 392)"/>
    <rect x="328" y="385" width="14" height="14" transform="rotate(45 335 392)"/>
    <rect x="398" y="385" width="14" height="14" transform="rotate(45 405 392)"/>
    <rect x="468" y="385" width="14" height="14" transform="rotate(45 475 392)"/>
  </g>
</svg>
