<svg viewBox="0 0 400 400" xmlns="http://www.w3.org/2000/svg">
  <defs>
    <linearGradient id="silver" x1="0%" y1="0%" x2="55%" y2="100%">
      <stop offset="0%" stop-color="#eef2f7"/>
      <stop offset="20%" stop-color="#c2c9d3"/>
      <stop offset="45%" stop-color="#f2f5f9"/>
      <stop offset="60%" stop-color="#99a1ae"/>
      <stop offset="80%" stop-color="#cad0d9"/>
      <stop offset="100%" stop-color="#aab1bd"/>
    </linearGradient>
    <linearGradient id="gold" x1="0%" y1="0%" x2="50%" y2="100%">
      <stop offset="0%" stop-color="#f6e6a6"/>
      <stop offset="30%" stop-color="#d3a948"/>
      <stop offset="52%" stop-color="#f2d77e"/>
      <stop offset="75%" stop-color="#b98a2f"/>
      <stop offset="100%" stop-color="#e3c265"/>
    </linearGradient>
    <linearGradient id="bg" x1="0%" y1="0%" x2="0%" y2="100%">
      <stop offset="0%" stop-color="#16203a"/>
      <stop offset="100%" stop-color="#0a1020"/>
    </linearGradient>
  </defs>
  <rect width="400" height="400" rx="76" fill="url(#bg)"/>
  <g fill="url(#silver)" stroke="#6e7785" stroke-width="1.3" stroke-linejoin="round">
    <rect x="193" y="66" width="14" height="108" rx="7" transform="rotate(-80 200 205)"/>
    <rect x="193" y="66" width="14" height="108" rx="7" transform="rotate(-60 200 205)"/>
    <rect x="193" y="66" width="14" height="108" rx="7" transform="rotate(-40 200 205)"/>
    <rect x="193" y="66" width="14" height="108" rx="7" transform="rotate(-20 200 205)"/>
    <rect x="193" y="66" width="14" height="108" rx="7" transform="rotate(0 200 205)"/>
    <rect x="193" y="66" width="14" height="108" rx="7" transform="rotate(20 200 205)"/>
    <rect x="193" y="66" width="14" height="108" rx="7" transform="rotate(40 200 205)"/>
    <rect x="193" y="66" width="14" height="108" rx="7" transform="rotate(60 200 205)"/>
    <rect x="193" y="66" width="14" height="108" rx="7" transform="rotate(80 200 205)"/>
  </g>
  <rect x="92" y="196" width="216" height="18" rx="9" fill="url(#silver)" stroke="#6e7785" stroke-width="1.3"/>
  <g font-family="Georgia,'Times New Roman',serif" font-size="46" font-weight="700" text-anchor="middle">
    <text x="68" y="298" fill="url(#silver)">C</text>
    <text x="112" y="298" fill="url(#silver)">A</text>
    <text x="156" y="298" fill="url(#silver)">L</text>
    <text x="200" y="298" fill="url(#silver)">I</text>
    <text x="244" y="298" fill="url(#silver)">F</text>
    <text x="288" y="298" fill="url(#gold)">A</text>
    <text x="332" y="298" fill="url(#gold)">I</text>
  </g>
  <text x="200" y="338" text-anchor="middle" font-family="'Helvetica Neue',Arial,sans-serif" font-size="17" font-weight="600" letter-spacing="7" fill="#9aa3b2">CONSULTING</text>
</svg>
